<?xml version="1.0" standalone="no"?>
<!DOCTYPE svg PUBLIC "-//W3C//DTD SVG 20010904//EN"
 "http://www.w3.org/TR/2001/REC-SVG-20010904/DTD/svg10.dtd">
<svg version="1.0" xmlns="http://www.w3.org/2000/svg"
 width="2911.000000pt" height="2911.000000pt" viewBox="0 0 2911.000000 2911.000000"
 preserveAspectRatio="xMidYMid meet">
<metadata>
Created by potrace 1.14, written by Peter Selinger 2001-2017
</metadata>
<g transform="translate(0.000000,2911.000000) scale(0.100000,-0.100000)"
fill="#000000" stroke="none">
<path d="M14530 29097 c-14 -8 -128 -73 -255 -146 -560 -324 -563 -326 -646
-373 -13 -7 -26 -15 -29 -18 -3 -3 -19 -12 -35 -21 -17 -8 -149 -84 -295 -169
-146 -84 -285 -164 -310 -178 -25 -14 -121 -70 -214 -124 -93 -54 -173 -98
-177 -98 -5 0 -9 -4 -9 -10 0 -5 -5 -10 -11 -10 -6 0 -45 -20 -86 -45 -40 -25
-76 -45 -79 -45 -2 0 -21 -11 -42 -23 -20 -13 -113 -68 -207 -122 -233 -135
-542 -312 -590 -340 -22 -13 -80 -46 -130 -75 -49 -29 -110 -64 -135 -78 -25
-14 -78 -45 -118 -69 -41 -24 -77 -43 -81 -43 -4 0 -13 -6 -19 -12 -7 -7 -42
-29 -77 -48 -36 -19 -106 -59 -157 -89 -51 -30 -106 -62 -123 -71 -16 -10
-145 -84 -285 -165 -240 -139 -317 -183 -365 -209 -11 -6 -27 -16 -35 -22 -8
-6 -37 -24 -65 -39 -27 -15 -154 -88 -282 -161 -320 -185 -386 -223 -403 -234
-8 -6 -22 -13 -30 -17 -31 -15 -476 -274 -495 -288 -10 -8 -22 -15 -26 -15 -4
0 -42 -20 -83 -45 -42 -25 -81 -45 -86 -45 -6 0 -10 -4 -10 -10 0 -5 -4 -10
-9 -10 -5 0 -58 -28 -118 -63 -59 -35 -184 -107 -278 -161 -93 -53 -177 -101
-185 -106 -114 -67 -203 -119 -405 -235 -132 -76 -323 -186 -425 -245 -102
-59 -207 -120 -235 -135 -27 -15 -54 -31 -60 -35 -5 -4 -27 -17 -47 -29 -21
-12 -53 -29 -70 -40 -18 -10 -109 -62 -203 -116 -93 -54 -267 -154 -385 -223
-118 -69 -235 -136 -260 -150 -47 -26 -221 -127 -375 -217 -49 -29 -111 -65
-137 -79 -26 -14 -145 -83 -265 -153 -120 -69 -236 -136 -258 -149 -22 -12
-105 -60 -185 -106 -80 -47 -154 -90 -165 -96 -11 -6 -54 -31 -95 -55 -41 -24
-95 -55 -120 -69 -25 -14 -90 -51 -145 -83 -159 -92 -616 -356 -649 -375 -17
-9 -55 -31 -84 -49 -29 -17 -55 -31 -58 -31 -3 0 -17 -9 -32 -19 -15 -10 -178
-106 -362 -212 -184 -105 -348 -200 -365 -210 -16 -11 -36 -22 -44 -26 -8 -4
-69 -38 -135 -77 -67 -38 -134 -77 -149 -85 -16 -9 -36 -21 -45 -26 -9 -6 -68
-39 -130 -75 l-112 -64 0 -7281 0 -7280 68 -37 c37 -21 90 -51 117 -68 28 -16
57 -33 65 -37 8 -4 55 -31 104 -60 49 -29 90 -53 91 -53 2 0 63 -35 136 -78
74 -43 159 -92 189 -109 30 -16 111 -63 179 -102 174 -102 192 -113 321 -187
63 -36 129 -74 145 -83 17 -10 136 -79 265 -154 129 -74 333 -192 453 -261
120 -69 222 -126 228 -126 5 0 9 -4 9 -9 0 -5 15 -14 33 -22 17 -7 55 -27 82
-45 47 -30 337 -198 435 -252 25 -14 126 -72 225 -130 99 -57 200 -116 225
-130 25 -13 70 -39 100 -57 30 -18 71 -42 90 -53 57 -32 482 -278 520 -301 19
-11 41 -24 48 -27 8 -4 80 -45 160 -92 81 -47 167 -96 192 -110 25 -13 50 -27
55 -32 6 -4 30 -19 55 -32 25 -14 113 -65 195 -113 83 -48 168 -97 190 -110
61 -35 288 -165 400 -230 55 -32 156 -90 225 -130 69 -40 142 -82 164 -94 21
-12 133 -77 250 -145 116 -67 218 -126 226 -130 8 -4 24 -12 35 -19 37 -22
786 -457 910 -527 17 -10 176 -102 355 -205 179 -103 340 -196 357 -206 18
-11 49 -28 68 -39 88 -50 103 -59 155 -90 30 -18 69 -40 85 -50 17 -9 134 -77
260 -150 127 -73 246 -141 265 -152 19 -11 64 -37 100 -58 36 -21 81 -47 100
-58 19 -10 134 -77 255 -147 121 -70 238 -137 260 -150 22 -12 123 -71 225
-130 102 -59 210 -121 240 -137 30 -17 62 -36 71 -44 8 -8 19 -14 22 -14 4 0
41 -20 82 -45 41 -25 82 -48 92 -52 10 -3 29 -14 43 -23 14 -10 41 -27 60 -37
19 -11 154 -89 300 -173 146 -84 324 -186 395 -228 72 -41 135 -78 140 -82 6
-4 35 -21 65 -37 30 -17 96 -54 145 -83 50 -28 108 -62 130 -75 69 -39 879
-505 895 -515 8 -5 70 -41 138 -79 110 -63 152 -77 152 -50 0 5 5 9 11 9 6 0
37 15 68 34 31 18 76 45 101 59 25 14 117 67 205 118 88 51 187 108 220 126
33 19 83 47 110 64 28 16 57 32 65 36 8 3 22 11 30 18 8 7 47 29 85 50 39 21
82 46 97 56 14 11 29 19 32 19 7 0 170 95 208 121 15 11 30 19 33 19 5 0 125
68 445 255 69 40 146 85 172 99 26 14 113 65 195 112 81 48 173 100 203 117
30 16 66 38 80 47 14 9 75 44 135 79 61 34 117 66 125 71 8 5 67 39 130 75 63
36 122 70 130 75 8 5 51 30 95 55 108 61 160 91 225 130 30 18 75 44 100 58
25 13 83 47 129 73 91 53 143 84 272 157 139 80 209 121 314 182 55 32 116 67
135 78 19 10 91 52 160 92 109 64 834 483 930 537 35 20 176 102 565 326 110
63 252 145 315 182 63 37 135 79 160 92 73 41 324 187 340 198 8 6 22 13 30
17 8 4 51 28 95 54 103 60 1119 646 1165 672 19 10 40 23 45 27 6 4 30 19 55
32 25 14 61 34 80 45 19 11 166 96 325 188 446 258 547 316 585 337 19 11 87
51 150 88 63 37 133 77 155 89 22 12 56 31 75 42 178 106 412 239 420 239 5 0
10 5 10 10 0 6 5 10 10 10 6 0 27 11 48 23 20 13 57 35 82 49 102 57 132 74
275 157 83 48 173 101 200 117 28 16 59 34 70 41 11 7 27 15 35 20 8 4 79 44
156 89 78 46 163 95 190 110 27 15 112 64 189 109 77 45 237 137 355 205 118
67 247 142 285 165 39 23 77 45 85 48 8 4 29 15 45 26 17 10 48 28 70 41 22
12 99 56 170 98 267 155 362 210 428 246 l67 38 0 7282 0 7281 -97 57 c-54 31
-114 65 -133 76 -34 19 -136 78 -195 112 -16 9 -207 120 -424 245 -217 125
-408 235 -425 245 -17 11 -42 25 -56 33 -31 17 -532 307 -580 336 -19 11 -42
24 -50 28 -13 6 -140 79 -613 354 -70 41 -135 79 -145 84 -112 64 -231 132
-247 142 -11 6 -36 20 -55 31 -19 10 -60 34 -90 52 -30 18 -69 41 -86 50 -16
10 -149 86 -295 170 -145 84 -280 162 -299 173 -19 11 -75 43 -125 72 -49 29
-108 63 -130 75 -22 13 -53 31 -70 41 -16 11 -36 22 -44 26 -8 3 -64 35 -125
71 -152 89 -364 211 -406 235 -19 11 -150 86 -290 167 -140 81 -271 157 -290
168 -73 41 -496 286 -525 303 -16 11 -37 22 -45 26 -8 4 -46 26 -85 48 -38 23
-162 95 -275 160 -113 65 -216 125 -230 133 -14 9 -27 17 -30 17 -3 0 -48 26
-100 56 -152 90 -208 123 -248 144 -20 11 -53 30 -72 42 -19 11 -53 31 -74 43
-21 12 -107 61 -190 109 -170 99 -602 348 -656 379 -19 10 -70 40 -113 66 -43
25 -81 46 -83 46 -2 0 -23 12 -47 27 -38 24 -548 320 -656 381 -81 45 -146 82
-161 92 -8 5 -37 22 -65 38 -27 16 -82 47 -122 70 -39 23 -87 50 -105 61 -18
10 -148 85 -288 166 -244 141 -279 162 -352 204 -18 10 -132 76 -253 146 -121
70 -238 137 -260 149 -121 68 -210 122 -213 128 -2 5 -8 8 -13 8 -6 0 -54 25
-107 56 -53 31 -110 64 -127 74 -16 10 -102 59 -190 109 -88 50 -167 96 -175
101 -18 11 -162 94 -415 240 -71 41 -138 80 -147 85 -9 6 -29 17 -45 26 -15 9
-57 33 -93 54 -36 20 -81 46 -100 57 -19 11 -123 71 -230 133 -107 62 -211
122 -230 133 -19 10 -75 43 -123 71 -49 28 -89 51 -90 51 -1 0 -13 -6 -27 -13z"/>
</g>
</svg>
